# File produced by Open Asset Import Library (http://www.assimp.sf.net)
# (assimp v3.2.202087883)

mtllib model_normalized.mtl

# 99 vertex positions
v -0.116152 0.463508 0.067767
v -0.231606 0.463508 0.183222
v -0.116152 0.463508 0.183222
v -0.231606 0.463508 0.067767
v -0.116152 0.070964 0.183222
v -0.116152 0.047873 0.183222
v -0.116152 -0.298489 0.183222
v -0.231606 -0.298489 0.183222
v -0.231606 0.070964 0.183222
v 0.122905 0.047873 0.183222
v 0.122905 0.070964 0.183222
v -0.116152 0.070964 0.067767
v -0.116152 0.185269 0.119915
v -0.116152 0.277632 0.119915
v -0.116152 0.323666 0.115141
v -0.116152 0.277632 0.143006
v -0.116152 0.416029 0.115141
v -0.116152 0.416029 0.138232
v -0.116152 0.185269 0.143006
v -0.116152 0.323666 0.138232
v -0.231606 0.070964 0.067767
v 0.122905 0.070964 0.067767
v 0.237477 0.070964 -0.146388
v 0.238359 0.070964 0.067767
v -0.116588 0.070964 -0.144453
v 0.122022 0.070964 -0.146388
v -0.116588 0.070964 -0.259908
v 0.122022 0.070964 -0.261843
v -0.232043 0.070964 -0.144453
v -0.231606 -0.298489 0.067767
v -0.228101 -0.182249 0.067767
v -0.228101 -0.136068 0.067767
v -0.231606 0.047873 0.067767
v -0.116152 -0.298489 0.067767
v -0.116152 -0.201037 0.102635
v -0.116152 0.047873 0.067767
v -0.116152 -0.154856 0.102635
v -0.116152 -0.154856 0.148816
v -0.116152 -0.201037 0.148816
v -0.116588 0.047873 -0.259908
v 0.122022 0.047873 -0.146388
v -0.116588 0.047873 -0.144453
v 0.122022 0.047873 -0.261843
v -0.232043 0.047873 -0.144453
v 0.122905 0.047873 0.067767
v 0.238359 0.047873 0.067767
v 0.237477 0.047873 -0.146388
v 0.122905 0.463508 0.183222
v 0.238359 -0.298489 0.183222
v 0.238359 0.463508 0.183222
v 0.122905 -0.298489 0.183222
v -0.232043 0.070964 -0.259908
v 0.122905 0.323666 0.138232
v 0.122905 0.416029 0.138232
v 0.122905 0.416029 0.115141
v 0.122905 0.323666 0.115141
v 0.122905 0.463508 0.067767
v 0.238359 0.463508 0.067767
v 0.237477 0.070964 -0.261843
v -0.159810 -0.178657 0.067767
v -0.159810 -0.132475 0.067767
v -0.228101 -0.182249 -0.140050
v -0.228101 -0.136068 -0.140050
v 0.122022 -0.298489 -0.146388
v 0.122022 -0.201745 -0.174375
v 0.122022 -0.298489 -0.261843
v 0.122022 -0.155563 -0.174375
v 0.122022 -0.155563 -0.220556
v 0.122022 -0.201745 -0.220556
v 0.206390 -0.135643 -0.146388
v 0.237477 -0.298489 -0.146388
v 0.160208 -0.135643 -0.146388
v 0.160208 -0.181825 -0.146388
v 0.206390 -0.181825 -0.146388
v 0.238359 -0.298489 0.067767
v 0.206390 -0.181825 0.067767
v 0.122905 -0.298489 0.067767
v 0.160208 -0.181825 0.067767
v 0.160208 -0.135643 0.067767
v 0.206390 -0.135643 0.067767
v 0.122905 -0.201037 0.148816
v 0.122905 -0.154856 0.148816
v 0.122905 -0.154856 0.102635
v 0.122905 -0.201037 0.102635
v -0.159810 -0.132475 -0.140050
v -0.116588 -0.298489 -0.144453
v -0.159810 -0.178657 -0.140050
v -0.232043 -0.298489 -0.144453
v -0.116588 -0.298489 -0.259908
v -0.116588 -0.201745 -0.220556
v -0.116588 -0.155563 -0.220556
v -0.116588 -0.155563 -0.174375
v -0.116588 -0.201745 -0.174375
v -0.232043 -0.298489 -0.259908
v 0.237477 -0.298489 -0.261843
v 0.137847 0.277632 0.119915
v 0.137847 0.185269 0.143006
v 0.137847 0.185269 0.119915
v 0.137847 0.277632 0.143006

# 272 UV coordinates
vt 0.00082021 0.00251852 0
vt 0 0.00333873 0
vt -8.02292e-20 0.00251852 0
vt 0.00082021 0.00333873 0
vt -0.00333873 0.00541339 0
vt -0.00251852 0.00262467 0
vt -0.00251852 0.00541339 0
vt -0.00251852 0.00246063 0
vt -0.00251852 2.93269e-37 0
vt -0.00333873 3.88778e-37 0
vt -0.00333873 0.00262467 0
vt -0.00082021 0.00246063 0
vt -0.00082021 0.00262467 0
vt 0.00082021 0.00262467 0
vt 0.000449742 0.00343671 0
vt -8.02292e-20 0.00262467 0
vt 0.00082021 0.00541339 0
vt 0.000449742 0.00409288 0
vt 0.000483655 0.00441991 0
vt 0.0002857 0.00409288 0
vt 0.000483655 0.00507608 0
vt 0.000319613 0.00507608 0
vt 0.0002857 0.00343671 0
vt -8.02292e-20 0.00541339 0
vt 0.000319613 0.00441991 0
vt 0.00333873 0.00262467 0
vt 0.00251852 0.00541339 0
vt 0.00251852 0.00262467 0
vt 0.00333873 0.00541339 0
vt 0 0.00541339 0
vt 0 0.00262467 0
vt -0.00082021 0.00541339 0
vt 0.00082021 0.00082021 0
vt 1.20344e-18 0.00251852 0
vt 1.20344e-18 0.00082021 0
vt 0.00234162 6.27086e-06 0
vt 0.00082021 1.13649e-18 0
vt 0.00232788 0.00252162 0
vt 0.00234162 0.000826481 0
vt 0.00314808 0.00252162 0
vt 0.00316183 0.000826481 0
vt 0.00232788 0.00334183 0
vt 4.15606e-05 0.00263302 0
vt -0.000778586 8.38071e-06 0
vt 4.15606e-05 8.35515e-06 0
vt -0.000778896 0.000834107 0
vt -0.000778896 0.00116219 0
vt -0.000778586 0.002469 0
vt -0.000778586 0.00263304 0
vt -0.00082021 0.00333873 0
vt 0 0.00251852 0
vt -0.00082021 0.00251852 0
vt 0.00082021 0 0
vt 0.000572506 0.000692316 0
vt 0 0 0
vt 0.00082021 0.00246063 0
vt 0.000572506 0.0010204 0
vt 0.000244422 0.0010204 0
vt 0.000244422 0.000692316 0
vt 0 0.00246063 0
vt -0.00314808 0.00252162 0
vt -0.00234162 0.000826481 0
vt -0.00232788 0.00252162 0
vt -0.00316183 0.000826481 0
vt -0.00232788 0.00334183 0
vt -0.00082021 0.00082021 0
vt -0.00082021 1.13649e-18 0
vt -0.00234162 6.27086e-06 0
vt -1.20344e-18 0.00082021 0
vt -1.20344e-18 0.00251852 0
vt -0.00082021 -3.10614e-37 0
vt 0.000800817 0.00246063 0
vt 0.00249601 0.00262467 0
vt 0.000800817 0.00262467 0
vt 0.00249601 0.00246063 0
vt -0.00232788 0.00262467 0
vt -0.00314808 0.00246063 0
vt -0.00232788 0.00246063 0
vt -0.00314808 0.00262467 0
vt 0.00314808 0.00334183 0
vt -0.000827067 0.00262467 0
vt -0.00233474 0.00246063 0
vt -0.000827067 0.00246063 0
vt -0.00233474 0.00262467 0
vt -0.00333873 0.00246063 0
vt 8.02292e-20 0.00541339 0
vt 8.02292e-20 0.00262467 0
vt -0.000319613 0.00441991 0
vt -0.000319613 0.00507608 0
vt -0.000483655 0.00507608 0
vt -0.000483655 0.00441991 0
vt -7.57661e-20 0.00541339 0
vt -7.57661e-20 0.00262467 0
vt 0.00234163 0.00262467 0
vt 0.000820203 0.00246063 0
vt 0.00234163 0.00246063 0
vt 0.000820203 0.00262467 0
vt 0.00316183 6.27086e-06 0
vt 0.00251852 -1.6371e-20 0
vt 0.00282867 0.000851314 0
vt 0.00251852 0.00246063 0
vt 0.00333873 -1.6371e-20 0
vt 0.00331384 0.000825792 0
vt 0.00282867 0.0011794 0
vt 0.00333873 0.00246063 0
vt 0.00331384 0.00115388 0
vt -0.00082021 0.00115388 0
vt -0.00229659 0.000825792 0
vt -0.00082021 0.000825792 0
vt -0.00229659 0.00115388 0
vt -0.00234162 0 0
vt -0.00254043 0.000687289 0
vt -0.00316183 0 0
vt -0.00234162 0.00246063 0
vt -0.00254043 0.00101537 0
vt -0.00286851 0.00101537 0
vt -0.00286851 0.000687289 0
vt -0.00316183 0.00246063 0
vt -6.27086e-06 0.00246063 0
vt -0.000227116 0.00115689 0
vt -6.27086e-06 0 0
vt -0.000826481 0.00246063 0
vt -0.0005552 0.00115689 0
vt -0.0005552 0.000828807 0
vt -0.000227116 0.000828807 0
vt -0.000826481 0 0
vt 0.000227116 0.000828807 0
vt 0.0005552 0.000828807 0
vt 0.0005552 0.00115689 0
vt 0.000227116 0.00115689 0
vt -0.000244422 0.000692316 0
vt -0.00082021 0 0
vt -0.000244422 0.0010204 0
vt -0.000572506 0.0010204 0
vt -0.000572506 0.000692316 0
vt -0.00252162 0.00246063 0
vt -0.00282867 0.0011794 0
vt -0.00252162 0 0
vt -0.00334183 0.00246063 0
vt -0.00331384 0.00115388 0
vt -0.00331384 0.000825792 0
vt -0.00282867 0.000851314 0
vt -0.00334183 0 0
vt 0.00314808 0 0
vt 0.00286851 0.000687289 0
vt 0.00232788 0 0
vt 0.00314808 0.00246063 0
vt 0.00286851 0.00101537 0
vt 0.00254043 0.00101537 0
vt 0.00254043 0.000687289 0
vt 0.00232788 0.00246063 0
vt 0 0.00082021 0
vt 0.00082021 -2.77017e-37 0
vt -8.02292e-20 0.00082021 0
vt 0.00082021 -7.57661e-20 0
vt 0.00334183 0 0
vt 0.00252162 0.00246063 0
vt 0.00252162 0 0
vt 0.00252162 0.00262467 0
vt 0.00334183 0.00262467 0
vt 0.000826481 0 0
vt 6.27086e-06 0.00262467 0
vt 6.27086e-06 0 0
vt 0.000826481 0.00262467 0
vt 0.000826481 0.00246063 0
vt -0.00334183 0.00262467 0
vt -0.00252162 0.00262467 0
vt -0.00314808 0 0
vt -0.00232788 0 0
vt 0.00316183 0.00262467 0
vt 0.00234162 -5.67828e-23 0
vt 0.00316183 -5.67828e-23 0
vt 0.00234162 0.00246063 0
vt 0.00234162 0.00262467 0
vt -0.000826481 0.00262467 0
vt -6.27086e-06 0.00262467 0
vt -0.00234162 0.00262467 0
vt -0.00316183 0.00262467 0
vt 0.00229659 -0.00326588 0
vt 0.00082021 -0.00278004 0
vt 0.00082021 -0.00326588 0
vt 0.00229659 -0.00278004 0
vt 0.00229659 0.0011794 0
vt 0.00082021 0.000851314 0
vt 0.00229659 0.000851314 0
vt 0.00082021 0.0011794 0
vt -0.00229659 -0.00276281 0
vt -0.00082021 -0.00324864 0
vt -0.00082021 -0.00276281 0
vt -0.00229659 -0.00324864 0
vt -0.00316183 6.27086e-06 0
vt -0.00314808 0.00334183 0
vt 0.000483655 0.00082021 0
vt 0.000319613 0.00251852 0
vt 0.000319613 0.00082021 0
vt 0.000483655 0.00251852 0
vt -0.00251852 0.00507608 0
vt -0.00082021 0.00441991 0
vt -0.00082021 0.00507608 0
vt -0.00251852 0.00441991 0
vt 0.00251852 0.00441991 0
vt 0.00082021 0.00507608 0
vt 0.00082021 0.00441991 0
vt 0.00251852 0.00507608 0
vt -0.000483655 0.00251852 0
vt -0.000319613 0.00082021 0
vt -0.000319613 0.00251852 0
vt -0.000483655 0.00082021 0
vt 0.00286851 0.000826481 0
vt 0.00254043 0.00252162 0
vt 0.00254043 0.000826481 0
vt 0.00286851 0.00252162 0
vt -0.00252162 0.00101537 0
vt -0.000826481 0.000687289 0
vt -0.000826481 0.00101537 0
vt -0.00252162 0.000687289 0
vt 0.00252162 0.000687289 0
vt 0.000826481 0.00101537 0
vt 0.000826481 0.000687289 0
vt 0.00252162 0.00101537 0
vt -0.00286851 0.00252162 0
vt -0.00254043 0.000826481 0
vt -0.00254043 0.00252162 0
vt -0.00286851 0.000826481 0
vt 0.00234162 0.000227116 0
vt 0.00082021 0.0005552 0
vt 0.00082021 0.000227116 0
vt 0.00234162 0.0005552 0
vt 0.00234162 0.00115689 0
vt 0.00082021 0.000828807 0
vt 0.00234162 0.000828807 0
vt 0.00082021 0.00115689 0
vt -0.00082021 0.00115689 0
vt -0.00234162 0.000828807 0
vt -0.00082021 0.000828807 0
vt -0.00234162 0.00115689 0
vt -0.00234162 0.0005552 0
vt -0.00082021 0.000227116 0
vt -0.00082021 0.0005552 0
vt -0.00234162 0.000227116 0
vt 0.00251852 0.000692316 0
vt 0.00082021 0.0010204 0
vt 0.00082021 0.000692316 0
vt 0.00251852 0.0010204 0
vt 0.000572506 0.00082021 0
vt 0.000244422 0.00251852 0
vt 0.000244422 0.00082021 0
vt 0.000572506 0.00251852 0
vt -0.000572506 0.00251852 0
vt -0.000244422 0.00082021 0
vt -0.000244422 0.00251852 0
vt -0.000572506 0.00082021 0
vt -0.00251852 0.0010204 0
vt -0.00082021 0.000692316 0
vt -0.00082021 0.0010204 0
vt -0.00251852 0.000692316 0
vt 0.000449742 0.00071406 0
vt 0.0002857 0.00251852 0
vt 0.0002857 0.00071406 0
vt 0.000449742 0.00251852 0
vt -0.00251852 0.00409288 0
vt -0.00071406 0.00343671 0
vt -0.00071406 0.00409288 0
vt -0.00251852 0.00343671 0
vt -0.000449742 0.00251852 0
vt -0.0002857 0.00071406 0
vt -0.0002857 0.00251852 0
vt -0.000449742 0.00071406 0
vt 0.00251852 0.00343671 0
vt 0.00071406 0.00409288 0
vt 0.00071406 0.00343671 0
vt 0.00251852 0.00409288 0

# 23 vertex normals
vn 0 0.0254 0
vn -3.78072e-19 -1.98707e-19 0.0254
vn 0.0254 0 0
vn 0 0 -0.0254
vn -0.0254 0 0
vn 1.17315e-17 0.0254 1.24226e-17
vn -0.025398 -6.35683e-05 -0.000316179
vn 0 -0.0254 0
vn -1.17315e-17 -0.0254 -1.24226e-17
vn 1.26162e-18 -1.93657e-19 0.0254
vn 0.0254 -2.23835e-17 -4.6231e-36
vn -0.00020595 2.1323e-19 -0.0253992
vn -0.0253999 -1.42401e-20 5.21808e-05
vn -0 -2.23835e-17 0.0254
vn 0.0253998 -1.16199e-17 -0.000104691
vn 2.16647e-18 5.06973e-19 -0.0254
vn 0 0 0.0254
vn 0.0254 -1.82884e-19 1.19144e-18
vn 4.6231e-36 2.23835e-17 -0.0254
vn 0.0254 -2.29998e-19 -6.73758e-19
vn -0.0254 2.23835e-17 1.95711e-34
vn 0.00133431 -0.0253649 -5.88711e-34
vn -0.00133431 0.0253649 1.71126e-20

# Mesh 'group_0_ID3' with 186 faces
g group_0_ID3
usemtl material
f  1/1/1 2/2/1 3/3/1
f  2/2/1 1/1/1 4/4/1
f  2/5/2 5/6/2 3/7/2
f  5/6/2 2/5/2 6/8/2
f  6/8/2 2/5/2 7/9/2
f  7/9/2 2/5/2 8/10/2
f  8/10/2 2/5/2 9/11/2
f  5/6/2 10/12/2 11/13/2
f  10/12/2 5/6/2 6/8/2
f  12/14/3 13/15/3 5/16/3
f  13/15/3 12/14/3 1/17/3
f  13/15/3 1/17/3 14/18/3
f  14/18/3 1/17/3 15/19/3
f  14/18/3 15/19/3 16/20/3
f  15/19/3 1/17/3 17/21/3
f  17/21/3 1/17/3 18/22/3
f  5/16/3 19/23/3 3/24/3
f  19/23/3 5/16/3 13/15/3
f  3/24/3 19/23/3 16/20/3
f  3/24/3 16/20/3 20/25/3
f  20/25/3 16/20/3 15/19/3
f  3/24/3 20/25/3 18/22/3
f  3/24/3 18/22/3 1/17/3
f  21/26/4 1/27/4 12/28/4
f  1/27/4 21/26/4 4/29/4
f  2/30/5 21/13/5 9/31/5
f  21/13/5 2/30/5 4/32/5
f  22/33/6 5/34/6 11/35/6
f  5/34/6 22/33/6 12/1/6
f  23/36/6 22/33/6 24/37/6
f  22/33/6 23/36/6 12/1/6
f  12/1/6 23/36/6 21/4/6
f  21/4/6 23/36/6 25/38/6
f  25/38/6 23/36/6 26/39/6
f  25/38/6 26/39/6 27/40/6
f  27/40/6 26/39/6 28/41/6
f  29/42/6 21/4/6 25/38/6
f  9/43/7 30/44/7 8/45/7
f  30/44/7 9/43/7 31/46/7
f  31/46/7 9/43/7 32/47/7
f  32/47/7 9/43/7 33/48/7
f  33/48/7 9/43/7 21/49/7
f  30/50/8 7/51/8 8/2/8
f  7/51/8 30/50/8 34/52/8
f  34/53/3 35/54/3 7/55/3
f  35/54/3 34/53/3 36/56/3
f  35/54/3 36/56/3 37/57/3
f  37/57/3 36/56/3 38/58/3
f  7/55/3 39/59/3 6/60/3
f  39/59/3 7/55/3 35/54/3
f  6/60/3 39/59/3 38/58/3
f  6/60/3 38/58/3 36/56/3
f  40/61/9 41/62/9 42/63/9
f  41/62/9 40/61/9 43/64/9
f  44/65/9 36/52/9 33/50/9
f  36/52/9 44/65/9 45/66/9
f  45/66/9 44/65/9 46/67/9
f  46/67/9 44/65/9 42/63/9
f  46/67/9 42/63/9 47/68/9
f  47/68/9 42/63/9 41/62/9
f  36/52/9 10/69/9 6/70/9
f  10/69/9 36/52/9 45/66/9
f  48/32/10 49/55/10 50/30/10
f  49/55/10 48/32/10 11/13/10
f  49/55/10 11/13/10 51/71/10
f  51/71/10 11/13/10 10/12/10
f  22/14/11 10/60/11 45/56/11
f  10/60/11 22/14/11 11/16/11
f  43/72/12 27/73/12 28/74/12
f  27/73/12 43/72/12 40/75/12
f  25/76/5 40/77/5 42/78/5
f  40/77/5 25/76/5 27/79/5
f  27/40/1 29/42/1 25/38/1
f  29/42/1 27/40/1 52/80/1
f  21/81/13 44/82/13 33/83/13
f  44/82/13 21/81/13 29/84/13
f  21/11/14 36/8/14 12/6/14
f  36/8/14 21/11/14 33/85/14
f  48/86/5 22/13/5 11/87/5
f  22/13/5 48/86/5 53/88/5
f  53/88/5 48/86/5 54/89/5
f  54/89/5 48/86/5 55/90/5
f  22/13/5 56/91/5 57/32/5
f  56/91/5 22/13/5 53/88/5
f  57/32/5 56/91/5 55/90/5
f  57/32/5 55/90/5 48/86/5
f  22/14/4 58/92/4 24/93/4
f  58/92/4 22/14/4 57/17/4
f  23/94/15 46/95/15 47/96/15
f  46/95/15 23/94/15 24/97/15
f  59/98/1 26/39/1 23/36/1
f  26/39/1 59/98/1 28/41/1
f  34/99/16 60/100/16 36/101/16
f  60/100/16 34/99/16 30/102/16
f  60/100/16 30/102/16 31/103/16
f  36/101/16 61/104/16 33/105/16
f  61/104/16 36/101/16 60/100/16
f  33/105/16 61/104/16 32/106/16
f  32/107/5 62/108/5 31/109/5
f  62/108/5 32/107/5 63/110/5
f  64/111/5 65/112/5 66/113/5
f  65/112/5 64/111/5 41/114/5
f  65/112/5 41/114/5 67/115/5
f  67/115/5 41/114/5 68/116/5
f  66/113/5 69/117/5 43/118/5
f  69/117/5 66/113/5 65/112/5
f  43/118/5 69/117/5 68/116/5
f  43/118/5 68/116/5 41/114/5
f  47/119/17 70/120/17 71/121/17
f  70/120/17 47/119/17 41/122/17
f  70/120/17 41/122/17 72/123/17
f  72/123/17 41/122/17 73/124/17
f  71/121/17 74/125/17 64/126/17
f  74/125/17 71/121/17 70/120/17
f  64/126/17 74/125/17 73/124/17
f  64/126/17 73/124/17 41/122/17
f  75/55/4 76/127/4 46/60/4
f  76/127/4 75/55/4 77/53/4
f  76/127/4 77/53/4 78/128/4
f  78/128/4 77/53/4 79/129/4
f  46/60/4 80/130/4 45/56/4
f  80/130/4 46/60/4 76/127/4
f  45/56/4 80/130/4 79/129/4
f  45/56/4 79/129/4 77/53/4
f  51/55/5 81/131/5 77/132/5
f  81/131/5 51/55/5 10/60/5
f  81/131/5 10/60/5 82/133/5
f  82/133/5 10/60/5 83/134/5
f  77/132/5 84/135/5 45/12/5
f  84/135/5 77/132/5 81/131/5
f  45/12/5 84/135/5 83/134/5
f  45/12/5 83/134/5 10/60/5
f  42/136/17 85/137/17 86/138/17
f  85/137/17 42/136/17 44/139/17
f  85/137/17 44/139/17 63/140/17
f  63/140/17 44/139/17 62/141/17
f  86/138/17 87/142/17 88/143/17
f  87/142/17 86/138/17 85/137/17
f  88/143/17 87/142/17 62/141/17
f  88/143/17 62/141/17 44/139/17
f  89/144/3 90/145/3 86/146/3
f  90/145/3 89/144/3 40/147/3
f  90/145/3 40/147/3 91/148/3
f  91/148/3 40/147/3 92/149/3
f  86/146/3 93/150/3 42/151/3
f  93/150/3 86/146/3 90/145/3
f  42/151/3 93/150/3 92/149/3
f  42/151/3 92/149/3 40/147/3
f  77/66/8 49/55/8 51/152/8
f  49/55/8 77/66/8 75/132/8
f  46/56/18 49/55/18 75/153/18
f  49/55/18 46/56/18 50/30/18
f  50/30/18 46/56/18 24/14/18
f  50/30/18 24/14/18 58/17/18
f  50/55/1 57/33/1 48/154/1
f  57/33/1 50/55/1 58/155/1
f  94/156/4 40/157/4 89/158/4
f  40/157/4 94/156/4 27/159/4
f  27/159/4 94/156/4 52/160/4
f  66/161/4 59/162/4 95/163/4
f  59/162/4 66/161/4 28/164/4
f  28/164/4 66/161/4 43/165/4
f  29/166/17 42/136/17 25/167/17
f  42/136/17 29/166/17 44/139/17
f  44/78/5 94/168/5 88/169/5
f  94/168/5 44/78/5 52/79/5
f  52/79/5 44/78/5 29/76/5
f  46/60/19 22/14/19 24/93/19
f  22/14/19 46/60/19 45/56/19
f  59/170/20 71/171/20 95/172/20
f  71/171/20 59/170/20 47/173/20
f  47/173/20 59/170/20 23/174/20
f  26/175/17 47/119/17 23/176/17
f  47/119/17 26/175/17 41/122/17
f  26/177/21 43/118/21 41/114/21
f  43/118/21 26/177/21 28/178/21
f  62/179/22 60/180/22 31/181/22
f  60/180/22 62/179/22 87/182/22
f  85/183/3 60/184/3 87/185/3
f  60/184/3 85/183/3 61/186/3
f  85/187/23 32/188/23 61/189/23
f  32/188/23 85/187/23 63/190/23
f  66/64/8 71/68/8 64/62/8
f  71/68/8 66/64/8 95/191/8
f  94/192/8 86/63/8 88/65/8
f  86/63/8 94/192/8 89/61/8

# Mesh 'group_0_ID16' with 8 faces
g group_0_ID16
usemtl material
f  55/193/1 18/194/1 54/195/1
f  18/194/1 55/193/1 17/196/1
f  18/197/17 53/198/17 54/199/17
f  53/198/17 18/197/17 20/200/17
f  15/201/4 55/202/4 56/203/4
f  55/202/4 15/201/4 17/204/4
f  15/205/8 53/206/8 20/207/8
f  53/206/8 15/205/8 56/208/8

# Mesh 'group_0_ID24' with 8 faces
g group_0_ID24
usemtl material
f  68/209/1 92/210/1 67/211/1
f  92/210/1 68/209/1 91/212/1
f  92/213/17 65/214/17 67/215/17
f  65/214/17 92/213/17 93/216/17
f  90/217/4 68/218/4 69/219/4
f  68/218/4 90/217/4 91/220/4
f  90/221/8 65/222/8 93/223/8
f  65/222/8 90/221/8 69/224/8

# Mesh 'group_0_ID32' with 8 faces
g group_0_ID32
usemtl material
f  70/225/1 79/226/1 80/227/1
f  79/226/1 70/225/1 72/228/1
f  70/229/3 76/230/3 74/231/3
f  76/230/3 70/229/3 80/232/3
f  79/233/5 73/234/5 78/235/5
f  73/234/5 79/233/5 72/236/5
f  73/237/8 76/238/8 78/239/8
f  76/238/8 73/237/8 74/240/8

# Mesh 'group_0_ID40' with 8 faces
g group_0_ID40
usemtl material
f  35/241/4 83/242/4 84/243/4
f  83/242/4 35/241/4 37/244/4
f  83/245/1 38/246/1 82/247/1
f  38/246/1 83/245/1 37/248/1
f  35/249/8 81/250/8 39/251/8
f  81/250/8 35/249/8 84/252/8
f  38/253/17 81/254/17 82/255/17
f  81/254/17 38/253/17 39/256/17

# Mesh 'group_0_ID48' with 10 faces
g group_0_ID48
usemtl material
f  96/18/3 97/23/3 98/15/3
f  97/23/3 96/18/3 99/20/3
f  96/257/1 16/258/1 99/259/1
f  16/258/1 96/257/1 14/260/1
f  16/261/17 97/262/17 99/263/17
f  97/262/17 16/261/17 19/264/17
f  13/265/8 97/266/8 19/267/8
f  97/266/8 13/265/8 98/268/8
f  13/269/4 96/270/4 98/271/4
f  96/270/4 13/269/4 14/272/4

